<svg xmlns="http://www.w3.org/2000/svg" version="1.1" xmlns:xlink="http://www.w3.org/1999/xlink" xmlns:svgjs="http://svgjs.dev/svgjs" width="1000" height="1125" viewBox="0 0 1000 1125"><g transform="matrix(1,0,0,1,1.7053025658242404e-13,0)"><svg viewBox="0 0 320 360" data-background-color="#ffffff" preserveAspectRatio="xMidYMid meet" height="1125" width="1000" xmlns="http://www.w3.org/2000/svg" xmlns:xlink="http://www.w3.org/1999/xlink"><g id="tight-bounds" transform="matrix(1,0,0,1,0,0)"><svg viewBox="0 0 320 360" height="360" width="320"><g><svg></svg></g><g><svg viewBox="0 0 320 360" height="360" width="320"><g><path xmlns="http://www.w3.org/2000/svg" d="M20.961 227.22l3.726 4.658-1.863-6.056c-0.466-2.795-3.726 0.466-1.863 1.398M25.153 224.425c1.397 2.329 2.795 4.658 2.795 6.987 0 3.261 2.795 4.658 5.123 5.589-3.261-3.726-5.124-13.974-7.918-12.576M204.017 26.929c7.918 0 15.371-0.932 23.756 0.931 20.495 5.124 37.729 15.371 49.374 29.811l32.606 52.169c1.397 13.042 4.192 27.482 3.726 43.319 3.261 0 2.795-4.658 6.521-5.59-3.726 9.316-5.59 20.961-6.521 34.469-2.329-7.453 0-18.632 0.466-24.687-3.261 5.124-5.124 1.397-5.124-0.932 0.466-3.726-1.397-3.261-2.795-4.658-5.124-4.658-8.384-9.782-12.11-17.7 2.329-6.055 2.795-14.905-4.658-19.563-2.329-1.397-5.124-3.726-6.521-7.453-1.863-5.124-5.124-11.179-4.193-19.097 0.466-2.329-6.987 5.124-11.179 1.863-18.166-12.576-36.332-27.016-58.224-39.127-11.645 0-20.029-4.192-24.221-9.316-3.726-4.658-0.932-10.713 4.658-11.179 3.261 0 6.987-0.932 9.782 0.932 0.466-1.863 2.329-4.192 4.657-4.192M157.904 16.215l0.932 0.466c4.658 0.932 6.987 7.453 12.11 5.124 0 3.261 0.466 6.521-0.466 8.85-1.397 3.726-5.59 3.726-8.85 3.726-31.208-1.863-49.374 11.179-68.471 22.358-5.124 3.261-10.713 5.59-14.906 9.782-20.029 18.632-41.921 35.866-47.045 70.335l-4.192 38.195c-0.466 4.192-5.124 8.384-4.192 13.508l3.26 22.824c-3.261-3.261-5.124 0.932-4.192 2.795 0.466 1.397 2.329 6.055 5.124 1.863 3.726 6.987 7.453 20.495 12.576 26.55 15.837 18.632 36.332 35.4 53.101 52.169 4.192-0.932 7.453-0.932 8.384-3.727 1.397 2.795-1.397 5.59-3.726 6.056 7.453 4.658 15.837 8.85 27.016 9.781 14.44 0.932 27.948 3.261 40.524 6.522 6.521-1.863 13.042-2.795 20.029-3.261 2.329 0 3.726-3.726 6.521-4.658l0.466-4.658c2.795 4.192 2.329-1.397 0.466-4.192 3.261 2.795 4.192 5.124 5.589 6.987 0-1.397 3.726-6.521 3.727-0.466l0.931-6.055c1.397-0.932 1.863 5.124 3.261 0.931 1.397-4.192 4.192-0.932 6.987-2.329-0.932 1.863-0.466 5.59 2.794 3.261l3.727-3.261c2.329 5.59 6.055 3.261 7.918 2.329 20.495-13.042 40.99-28.413 60.553-43.784l-0.466 6.055 2.329-7.453c2.329 2.329 4.192 0.466 5.124-0.931 2.795-4.658 6.521-9.316 12.577-13.508-7.453 20.029-16.303 35.866-27.482 48.908l-4.658 5.59c0 3.261-0.932 7.453-4.658 7.918-1.863 0.466-5.59-0.932-8.384 1.863-1.397 1.863 3.261 5.59-0.466 2.795-3.261-2.329-6.521 0-10.248 0.932-2.795 0.932 1.863 3.726 2.795 5.589 0.932 1.863 1.863 3.726 1.398 6.056l-5.124-5.59c-6.055 3.261-9.782 9.316-14.906 13.974-2.329 1.863-1.397 5.124-1.397 7.918-3.261 0-6.987-0.932-8.85 0.932-1.397 1.863-0.932 4.658-0.932 7.453-4.658-0.466-5.124-7.453-9.315-6.056-4.192 0.932-8.85 1.397-12.577 3.727 2.795 5.59-4.658 2.329-3.726 3.26-6.987-4.192-13.042-7.453-20.495-4.658-15.837-5.124-35.4-2.795-49.84-0.931 0-2.329 0.466-4.658-0.466-5.124-0.932 2.329-3.726 1.397-3.26 1.397-8.85-6.055-17.7-9.782-27.016-14.905-8.384 0.932-16.303-3.261-18.632-5.59-6.521-6.055-13.974-2.795-20.029-4.192-13.042-3.261-17.7-16.769-19.098-26.084-0.932-4.658-4.658-6.521-6.055-6.056-6.055-19.563-15.371-37.263-22.824-55.429-1.863-4.658-1.397-9.316-1.397-14.44 2.329 0.932 4.658 0.466 4.192-2.794-2.329-15.371-7.918-27.016-13.974-38.195 3.261-15.837 3.726-34.469 11.179-48.443 6.521-12.576 18.632-19.098 27.016-29.811 2.795-3.726 2.795-8.85 5.59-12.11 9.316-9.316 18.632-19.098 28.879-27.482 4.658-3.726 10.247 0 17.234-1.397 2.329-8.384 11.645-15.837 20.495-13.508 3.726 0.932 11.179-8.85 13.508-9.782 3.726-1.397 1.863 3.726 1.863 6.987 8.85-6.987 20.961-10.713 32.14-14.906" fill="#ee3e38" fill-rule="nonzero" stroke="none" stroke-width="1" stroke-linecap="butt" stroke-linejoin="miter" stroke-miterlimit="10" stroke-dasharray="" stroke-dashoffset="0" font-family="none" font-weight="none" font-size="none" text-anchor="none" style="mix-blend-mode: normal" data-fill-palette-color="tertiary"></path></g><g transform="matrix(1,0,0,1,97.52743203376042,90)"><svg viewBox="0 0 124.94513593247916 180" height="180" width="124.94513593247916"><g><svg viewBox="0 0 192 276.6014038247664" height="180" width="124.94513593247916"><g transform="matrix(1,0,0,1,0,120.91933358447062)"><svg viewBox="0 0 192 155.68207024029576" height="155.68207024029576" width="192"><g id="textblocktransform"><svg viewBox="0 0 192 155.68207024029576" height="155.68207024029576" width="192" id="textblock"><g><svg viewBox="0 0 192 155.68207024029576" height="155.68207024029576" width="192"><g transform="matrix(1,0,0,1,0,0)"><svg width="192" viewBox="3.5900001525878906 -33.27000045776367 41.02000045776367 33.27000045776367" height="155.68207024029576" data-palette-color="#ee3e38"><path d="M12.61-11.12L12.61 0 3.59 0 3.59-33.27 12.61-33.27 12.61-18.81Q13.37-20.3 15.37-23.08L15.37-23.08 22.37-33.27 32.18-33.27 21.71-18.35 32 0 21.87 0 15.29-12.71 12.61-11.12ZM44.61-33.27L44.61 0 35.59 0 35.59-33.27 44.61-33.27Z" opacity="1" transform="matrix(1,0,0,1,0,0)" fill="#ee3e38" class="wordmark-text-0" data-fill-palette-color="primary" id="text-0"></path></svg></g></svg></g></svg></g></svg></g><g transform="matrix(1,0,0,1,36.67199999999999,0)"><svg viewBox="0 0 118.65600000000002 98.20158316672571" height="98.20158316672571" width="118.65600000000002"><g><svg xmlns="http://www.w3.org/2000/svg" xmlns:xlink="http://www.w3.org/1999/xlink" version="1.1" x="0" y="0" viewBox="69.28795623779297 6.6049652099609375 703.3131103515625 582.0730590820312" enable-background="new 0 0 841.889 595.281" xml:space="preserve" height="98.20158316672571" width="118.65600000000002" class="icon-icon-0" data-fill-palette-color="accent" id="icon-0"><path fill="#8d021f" d="M631.909 349.739c-1.324-0.569-2.562-1.324-3.973-1.746-14.73-4.318-30.647-0.555-45.972 10.857-4.061 3.02-4.877 8.738-1.882 12.786 3.02 4.034 8.715 4.865 12.8 1.868 7.351-5.494 18.59-11.325 29.903-7.982 2.354 0.693 4.31 1.855 6.066 3.267-1.671 6.944-3.812 13.79-6.686 20.448-0.966 2.203-2.127 4.407-3.305 6.611-3.292 6.201-7.018 13.242-7.835 21.748-0.717 7.885-2.054 14.655-4.083 20.694-4.357 13.097-11.29 25.042-19.893 35.266l0.508-1.262c0.693-2.266 1.608-4.468 2.499-6.696 4.11-10.052 9.706-23.814-1.633-41.528-9.706-15.188-23.938-21.675-40.625-18.963 0.656-5.88 0.705-11.661 0.073-17.157-3.019-27.429-12.921-36.823-30.151-44.586-19.706-8.875-40.885-5.322-58.079 9.73-6.808 5.966-11.733 12.661-16.104 18.591-7.143 9.691-9.914 12.577-13.133 11.82-0.125-0.023-0.223 0-0.348-0.023V204.075c9.359-2.167 19.186 0.482 25.945 7.339 8.021 8.146 16.017 24.397 8.689 34.993-5.693 8.257-18.764 29.103-16.4 44.127 1.547 10.027 7.166 18.617 15.41 23.57 3.119 1.882 7.34 3.489 12.588 3.489 4.742 0 10.337-1.324 16.724-4.95 4.395-2.488 5.929-8.071 3.44-12.454-2.499-4.382-8.059-5.954-12.451-3.441-4.681 2.663-8.331 3.219-10.906 1.684-3.577-2.14-6.053-6.041-6.745-10.707-0.569-3.664 2.537-15.286 13.368-30.944 8.728-12.614 7.352-28.408 0.78-41.95 10.632 0.323 22.836-1.521 32.689-5.407 10.273-4.061 17.181-10.052 20.523-17.825l0.471-1.398c2.426-9.655 1.162-20.09-3.416-28.618-5.671-10.521-14.026-15.745-21.391-20.339l-1.138-0.593c-9.259-4.109-16.229-12.699-16.959-20.894-0.494-5.608 2.055-10.336 7.105-13.752 0.296-0.174 0.595-0.248 0.892-0.422 0.321 0.272 0.681 0.482 0.966 0.768 2.524 2.426 5.657 3.663 9.433 3.59l1.349-0.037c10.175 0 22.242 5.05 30.746 12.861 7.291 6.696 12.181 16.041 16.364 31.242 0.977 3.577 3.453 6.536 6.821 8.108 10.966 5.173 21.672 16.041 29.26 29.273-1.175 3.242-2.624 5.842-3.688 7.501-5.842 9.098-13.579 13.875-18.84 13.441-22.204-1.102-39.855 8.812-49.028 26.973-12.726 18.629-12.342 51.394 0.409 68.401 9.852 17.106 26.809 26.005 50.501 26.451h0.15c4.975 0 9.046-3.985 9.146-8.962 0.087-5.049-3.925-9.196-8.962-9.308-17.268-0.321-28.408-5.818-35.611-18.183-8.627-11.625-8.801-36.517-0.31-48.437l0.78-1.287c7.425-15.25 21.463-17.812 32.108-17.404 10.854 0.546 23.245-6.373 32.096-17.761 3.12 12.006 3.787 24.94 1.943 39.818-0.447 3.553 0.644 7.118 2.971 9.829 1.387 1.608 2.647 3.403 3.937 5.16-8.689 5.831-19.533 7.86-31.416 2.391-4.58-2.091-10.025-0.125-12.131 4.479-2.103 4.581-0.111 10.003 4.469 12.106 7.24 3.342 14.644 4.951 21.873 4.951 9.356 0 18.331-2.921 26.39-8.071 7.502 16.303 11.584 36.021 11.425 57.101C632.405 343.649 632.146 346.694 631.909 349.739M549.287 501.669c-0.918 0.37-1.82 0.68-2.699 0.989-4.036 1.41-9.532 3.354-14.26 8.615-2.378 2.635-5.224 5.656-8.269 8.059-6.04 4.691-11.537 7.972-17.304 10.298-10.795 4.357-23.11 6.375-39.81 6.511-24.854-3.59-33.271-30.549-32.899-52.743 0.049-2.845 0.123-5.692 0.321-8.144 0.137-1.114 0.843-5.026 1.077-6.302 0.68-2.796 0.384-5.779-0.854-8.418-0.271-0.68-0.568-1.397-1.139-2.437-0.025-0.05-1.263-2.13-1.287-2.179-0.025-0.037-0.049-0.062-0.049-0.087 10.471-0.236 21.611-5.583 29.83-10.656 16.847-10.423 36.64-29.486 40.254-46.741 1.039-4.938-2.129-9.777-7.055-10.818-4.853-1.039-9.78 2.116-10.819 7.068-2.054 9.778-16.104 25.139-31.985 34.955-10.942 6.783-18.541 8.404-22.281 7.823V401.74c13.147 0.902 21.144-9.667 28.186-19.236 3.974-5.409 8.133-11.017 13.431-15.67 15.893-13.877 30.971-10.213 38.546-6.808 11.189 5.024 17.167 8.665 19.531 29.929 2.451 22.245-9.073 51.457-25.722 65.121-3.242 2.662-6.819 5.113-10.359 7.539-11.029 7.6-23.532 16.191-25.981 30.759-1.783 10.559 2.141 22.194 12.006 35.6 1.782 2.439 4.556 3.726 7.353 3.726 1.882 0 3.788-0.581 5.409-1.771 4.072-2.994 4.939-8.714 1.944-12.772-6.672-9.073-9.606-16.389-8.703-21.75 1.164-6.93 9.506-12.675 18.308-18.739 3.986-2.723 7.985-5.497 11.611-8.479 12.377-10.149 22.354-26.526 27.899-43.979 17.083-6.771 25.017 1.621 29.535 8.701 6.239 9.742 3.788 15.733 0.097 24.805-1.062 2.6-2.102 5.2-2.98 7.985-2.08 4.469-0.236 9.815 4.195 12.03 2.784 1.388 5.868 1.065 8.403-0.321C573.175 488.497 561.814 496.555 549.287 501.669M430.06 164.86c1.018-1.052 1.883-2.216 2.502-3.589 0.805-1.894 1.831-3.702 2.922-5.521 1.484-2.462 2.078-5.383 1.683-8.244-1.091-7.996-3.168-34.967 16.19-46.591 7.723-4.604 18.134-5.668 27.801-3.811-6.016 6.77-8.863 15.111-8.059 24.234 1.275 14.557 12.144 28.829 27.121 35.725 6.931 4.344 11.399 7.487 14.457 13.183 2.266 4.208 2.997 9.778 1.955 14.742-1.893 3.563-6.511 6.002-10.15 7.438-14.062 5.545-34.854 4.926-41.997 1.795-0.285-0.125-0.606-0.236-0.905-0.346-9.604-7.068-21.623-9.842-33.52-8.208V164.86zM411.804 185.643c-11.822-1.597-23.803 1.177-33.396 8.232-0.323 0.111-0.631 0.223-0.941 0.346-7.142 3.144-27.938 3.75-42-1.795-3.639-1.437-8.255-3.874-10.149-7.438-1.065-5.026-0.347-10.472 1.968-14.755 3.057-5.683 7.514-8.826 14.469-13.17 14.967-6.896 25.846-21.166 27.108-35.725 0.816-9.085-2.029-17.378-8.17-24.234 9.792-2.019 20.276-1.115 27.356 3.527 18.468 12.093 18.381 34.559 16.686 46.888-0.397 2.834 0.185 5.73 1.659 8.206 1.077 1.795 2.079 3.614 2.897 5.521 0.618 1.388 1.496 2.576 2.513 3.64V185.643zM411.804 383.495c-0.075 0.014-0.149 0-0.236 0.014-3.243 0.791-6.016-2.143-13.145-11.834-4.357-5.919-9.296-12.614-16.104-18.58-17.192-15.051-38.385-18.567-58.065-9.73-17.23 7.763-27.145 17.157-30.19 44.574-0.593 5.509-0.557 11.289 0.087 17.169-16.537-2.712-30.896 3.762-40.625 18.976-11.327 17.701-5.743 31.464-1.633 41.516 0.903 2.229 1.806 4.431 2.5 6.647 0.124 0.421 0.482 1.311 0.767 1.969-8.986-10.448-16.066-22.615-20.151-35.711-2.475-7.91-3.911-15.487-4.27-22.542-0.334-6.202-3.082-10.953-5.087-14.407-0.47-0.805-0.916-1.572-1.325-2.401-1.82-3.652-3.527-7.341-5.087-11.079-2.674-6.448-4.653-12.848-6.238-19.198 1.783-1.447 3.775-2.648 6.165-3.354 11.413-3.33 22.564 2.5 29.918 7.972 4.023 3.02 9.766 2.189 12.773-1.857 3.021-4.048 2.192-9.767-1.869-12.775-15.324-11.437-31.217-15.187-45.972-10.868-1.485 0.435-2.748 1.213-4.158 1.833-0.235-3.046-0.434-6.076-0.41-9.085 0.149-13.876 2.118-36.614 11.451-57.298 8.069 5.173 17.056 8.106 26.439 8.106 7.229 0 14.63-1.609 21.872-4.951 4.592-2.104 6.572-7.538 4.468-12.117-2.128-4.592-7.563-6.574-12.105-4.469-11.908 5.508-22.75 3.465-31.403-2.364 1.274-1.732 2.413-3.552 3.849-5.211 2.328-2.687 3.417-6.239 2.996-9.767-1.832-15.448-1.176-28.433 1.832-40.031 8.838 11.514 21.229 18.593 32.257 17.936 10.683-0.395 24.683 2.154 32.108 17.404l0.768 1.275c8.479 11.932 8.319 36.837-0.915 49.338-6.61 11.475-17.725 16.972-35.005 17.293-5.051 0.111-9.061 4.259-8.962 9.31 0.086 4.975 4.159 8.96 9.122 8.96h0.162c23.691-0.444 40.674-9.345 49.92-25.548 13.308-17.886 13.716-50.676 1.003-69.305-9.16-18.158-26.923-28.036-49.005-26.973-5.163 0.397-13.009-4.344-18.875-13.441-1.041-1.621-2.427-4.123-3.59-7.242 7.947-13.714 18.171-24.359 29.088-29.508 3.367-1.586 5.867-4.556 6.833-8.133 2.996-11.028 7.253-23.32 16.055-30.945 9.482-8.231 21.117-13.158 31.105-13.158l1.361 0.037c3.49 0.101 6.884-1.14 9.37-3.577 0.323-0.31 0.731-0.544 1.065-0.829 0.136 0.074 0.284 0.099 0.408 0.185 5.521 3.702 8.046 8.418 7.55 14.038-0.717 8.194-7.7 16.784-16.958 20.894l-1.14 0.595c-7.364 4.605-15.72 9.827-21.364 20.323-4.592 8.516-5.842 18.951-3.441 28.618l0.483 1.412c3.33 7.762 10.236 13.751 20.511 17.825 9.876 3.886 22.033 5.545 32.701 5.407-6.585 13.542-7.945 29.336 0.781 41.95 10.806 15.658 13.95 27.294 13.381 30.946-0.731 4.664-3.193 8.565-6.759 10.705-2.562 1.535-6.226 0.955-10.906-1.684-4.368-2.488-9.938-0.951-12.438 3.441-2.499 4.384-0.965 9.966 3.417 12.454 13.493 7.648 23.394 5.024 29.312 1.461 8.23-4.94 13.838-13.529 15.421-23.568 2.339-15.016-10.694-35.872-16.412-44.129-7.316-10.596 0.691-26.848 8.688-34.98 6.759-6.845 16.539-9.494 25.859-7.365V383.495zM411.804 437.463c-3.714 0.545-11.327-1.113-22.183-7.823-15.868-9.816-29.917-25.177-31.972-34.955-1.064-4.939-5.867-8.119-10.831-7.068-4.939 1.041-8.108 5.88-7.068 10.818 3.639 17.255 23.431 36.329 40.278 46.741 8.22 5.074 19.335 10.396 29.807 10.631-0.174 0.297-0.348 0.569-0.495 0.867-0.285 0.632-0.62 1.226-0.965 1.794-1.51 2.426-2.154 5.286-1.844 8.133 1.722 15.077 4.444 64.378-31.651 69.553-17.466-0.148-30.078-2.304-40.787-6.957-6.696-2.908-12.526-6.535-17.303-10.732-3.528-3.13-6.177-5.828-8.331-8.502-3.924-4.841-9.655-6.474-13.838-7.687-0.743-0.211-1.46-0.396-2.055-0.633-12.601-5.125-24.113-13.293-33.718-23.344 2.673 1.695 6.053 2.177 9.011 0.644 4.469-2.328 6.338-7.564 3.986-12.032-0.842-2.759-1.931-5.471-3.045-8.193-3.689-9.062-6.115-15.051 0.099-24.794 4.518-7.093 12.44-15.497 29.535-8.714 5.557 17.453 15.533 33.815 27.9 43.979 3.639 2.981 7.649 5.756 11.611 8.479 8.824 6.078 17.155 11.81 18.319 18.741 0.892 5.359-2.029 12.675-8.69 21.748-2.995 4.059-2.127 9.778 1.919 12.772 4.085 2.983 9.792 2.143 12.786-1.955 9.854-13.379 13.765-25.027 11.995-35.6-2.439-14.557-14.965-23.157-25.982-30.745-3.542-2.439-7.105-4.891-10.36-7.551-16.648-13.666-28.172-42.878-25.709-65.123 2.365-21.264 8.306-24.903 19.533-29.929 7.588-3.428 22.678-7.056 38.545 6.808 5.298 4.653 9.432 10.25 13.417 15.67 7.031 9.556 15.003 20.128 28.087 19.26V437.463zM740.254 329.985c17.825 0 32.345-14.508 32.345-32.345 0-17.825-14.52-32.331-32.345-32.331-13.343 0-24.791 8.118-29.731 19.654h-58.856c-0.93 0-1.771 0.334-2.649 0.533-4.545-13.17-10.645-25.164-18.357-35.203 2.08-22.713-0.939-42.778-9.134-61.186-9.037-20.325-23.916-37.553-40.502-47.159-3.788-12.342-9.928-26.663-22.106-37.852-0.892-0.83-1.982-1.475-2.935-2.266 0.854-0.457 1.746-0.879 2.499-1.572l53.685-49.896h97.937c4.629 12.193 16.351 20.918 30.151 20.918 17.825 0 32.345-14.507 32.345-32.33 0-17.837-14.52-32.345-32.345-32.345-13.801 0-25.522 8.738-30.151 20.932H603.204l-67.163 62.322c-7.254-2.934-14.804-4.839-22.083-5.223-19.719-15.932-51.864-18.494-73.637-5.458-7.996 4.801-14.444 11.424-19.272 19.383-0.024 0-0.073-0.025-0.098-0.025-0.136 0-0.248 0.076-0.372 0.076-4.689-7.627-10.917-14.148-18.642-19.199-20.696-13.542-53.918-10.793-73.921 5.224-1.114 0.05-2.253 0.371-3.379 0.496l-54.104-59.65H130.908c-5.125-11.116-16.29-18.877-29.288-18.877-17.836 0-32.331 14.508-32.331 32.345 0 17.823 14.495 32.33 32.331 32.33 13.616 0 25.251-8.502 30.005-20.447h127.667l38.842 42.938c-5.199 2.848-10.274 6.09-14.927 10.14-12.256 10.595-18.494 25.275-22.368 38.062-21.772 12.514-34.534 34.425-40.414 46.963-8.219 17.59-11.214 37.691-9.136 61.295-14.568 18.927-23.616 44.673-26.315 74.033-0.792-0.159-1.535-0.481-2.365-0.481h-11.016l-37.864-24.026c0.05-0.718 0.223-1.398 0.223-2.116 0-17.823-14.506-32.331-32.332-32.331-17.836 0-32.331 14.508-32.331 32.331 0 17.837 14.495 32.345 32.331 32.345 7.824 0 14.916-2.896 20.523-7.564l42.085 26.712h18.381c0.657 0 1.226-0.272 1.845-0.37 0.866 16.129 4.555 32.554 11.362 49.018 1.783 4.282 3.739 8.527 5.806 12.674 0.631 1.263 1.349 2.526 2.092 3.788 0.644 1.102 1.585 2.748 1.708 3.032 0.458 9.159 2.277 18.852 5.397 28.805 2.698 8.689 6.461 17.068 11.066 24.991l-0.359 72.596h-90.174c-4.926-11.548-16.4-19.667-29.733-19.667-17.836 0-32.331 14.507-32.331 32.33 0 17.838 14.495 32.345 32.331 32.345 13.333 0 24.781-8.096 29.72-19.656h115.538v-67.052c10.707 9.791 22.924 17.788 36.106 23.159 1.262 0.52 2.897 1.027 4.642 1.51 0.755 0.223 1.547 0.408 2.29 0.669 2.773 3.292 6.016 6.546 10.101 10.161 6.783 5.979 14.854 11.019 23.977 14.979 14.196 6.163 30.128 8.962 51.629 9.06h0.049c0.52 0 1.041-0.036 1.559-0.098 19.435-2.402 34.362-12.515 43.819-28.656 9.099 15.026 23.407 26.156 43.534 28.643 0.533 0.062 1.041 0.062 1.609 0.1 12.737-0.05 31.773-0.979 50.045-8.355 7.91-3.182 15.571-7.713 23.442-13.852 4.581-3.59 8.369-7.6 11.488-11.053 0.395-0.457 2.067-1.04 3.825-1.659 1.25-0.446 2.537-0.892 3.848-1.423 8.394-3.404 16.365-7.847 23.791-13.145 0.495 0.753 0.843 1.572 1.512 2.227l55.528 54.786h70.851c4.951 11.561 16.412 19.656 29.731 19.656 17.825 0 32.345-14.507 32.345-32.345 0-17.825-14.52-32.33-32.345-32.33-13.343 0-24.791 8.119-29.731 19.667h-60.455l-48.126-47.482c-0.222-0.21-0.481-0.272-0.717-0.457 13.146-13.863 23.519-30.724 29.769-49.39 2.649-7.921 4.395-16.561 5.273-26.377 0.334-3.44 2.601-7.725 4.988-12.254 1.51-2.809 2.97-5.62 4.208-8.441 8.022-18.666 12.156-38.348 12.317-58.474 0.087-10.46-0.843-20.646-2.502-30.476h55.244C715.463 321.864 726.911 329.985 740.254 329.985" data-fill-palette-color="accent"></path></svg></g></svg></g><g></g></svg></g></svg></g></svg></g><defs></defs></svg><rect width="320" height="360" fill="none" stroke="none" visibility="hidden"></rect></g></svg></g></svg>